<svg width="165" height="47" viewBox="0 0 165 47" fill="none" xmlns="http://www.w3.org/2000/svg">
<path d="M22.1804 6.77274V0H0.924683V46.5328H22.1804V39.76C17.8261 39.76 13.6502 38.0222 10.5713 34.9291C7.49244 31.8359 5.76274 27.6408 5.76274 23.2664C5.76274 18.892 7.49244 14.6967 10.5713 11.6036C13.6502 8.51047 17.8261 6.77274 22.1804 6.77274Z" fill="white"/>
<path d="M22.1802 6.89355V39.6388C26.5987 39.6388 30.8362 37.9138 33.9606 34.8433C37.0849 31.7728 38.8401 27.6085 38.8401 23.2662C38.8401 18.9239 37.0849 14.7594 33.9606 11.689C30.8362 8.61853 26.5987 6.89355 22.1802 6.89355Z" fill="white"/>
<path d="M54.6858 11.165H47.4642V30.9506H54.6858C55.6669 30.9506 56.1574 30.9506 57.1385 30.8422C60.7902 30.4085 65.1504 28.43 65.1504 20.7596C65.1504 13.3875 60.7902 11.6257 56.975 11.2463C56.1029 11.165 55.6669 11.165 54.6858 11.165ZM51.4429 27.4813V14.6342H55.3126C59.2096 14.6342 61.0627 16.5586 61.0627 20.8138C61.0627 25.4486 59.1006 27.4813 55.3126 27.4813H51.4429Z" fill="white"/>
<path d="M71.0024 16.6399H67.1054V30.9506H71.0024V16.6399ZM66.9147 12.1678C66.9147 13.3603 67.8685 14.2819 69.0403 14.2819C70.2394 14.2819 71.1932 13.3603 71.1932 12.1678C71.1932 11.0023 70.2394 10.0537 69.0403 10.0537C67.8685 10.0537 66.9147 11.0023 66.9147 12.1678Z" fill="white"/>
<path d="M87.0237 27.0477V16.6399H83.3992L83.2902 18.6727C82.7724 16.8025 81.3009 16.2604 78.9572 16.2604C74.8695 16.2604 72.5259 18.754 72.5259 23.4429C72.5259 27.7253 74.4063 30.5711 78.7665 30.5711C81.3009 30.5711 82.7179 29.8935 83.0995 27.7795V30.2188C83.0995 32.0618 82.1184 33.3357 79.7475 33.3357C77.9217 33.3357 76.8044 32.8749 76.5864 31.3842H72.7712C72.9892 35.4769 75.9868 36.4797 79.7748 36.4797C84.2713 36.4797 86.8329 34.4741 86.9964 30.3001C87.0236 29.487 87.0237 28.4842 87.0237 27.0477ZM76.6954 23.4158C76.6954 20.9223 77.7582 19.3502 79.8565 19.3502C81.4916 19.3502 83.0995 20.3531 83.0995 23.0905V23.47C83.0995 26.2617 81.7369 27.4271 79.7748 27.4271C77.6219 27.4271 76.6954 25.7196 76.6954 23.4158Z" fill="white"/>
<path d="M93.4252 16.6399H89.5282V30.9506H93.4252V16.6399ZM89.3375 12.1678C89.3375 13.3603 90.2913 14.2819 91.4631 14.2819C92.6621 14.2819 93.6159 13.3603 93.6159 12.1678C93.6159 11.0023 92.6621 10.0537 91.4631 10.0537C90.2913 10.0537 89.3375 11.0023 89.3375 12.1678Z" fill="white"/>
<path d="M99.793 11.165H95.8961V30.9506H99.4933L99.6023 28.8365C100.338 30.8422 102.191 31.33 104.181 31.33C108.295 31.33 110.666 28.701 110.666 23.741C110.666 19.1605 108.759 16.2604 104.399 16.2604C102.3 16.2604 100.556 16.7483 99.793 18.6727V11.165ZM99.793 24.1747V23.6597C99.793 20.4886 101.183 19.3773 103.09 19.3773C105.434 19.3773 106.415 21.1662 106.415 23.7139C106.415 26.5598 105.325 28.186 103.009 28.186C101.428 28.186 99.793 27.2916 99.793 24.1747Z" fill="white"/>
<path d="M115.836 23.7681C115.836 20.5428 117.089 19.3773 119.215 19.3773C121.313 19.3773 122.54 20.5428 122.54 23.7681C122.54 27.0477 121.313 28.186 119.215 28.186C117.089 28.186 115.836 27.0477 115.836 23.7681ZM111.775 23.7681C111.775 28.6739 114.364 31.33 119.215 31.33C124.038 31.33 126.627 28.6739 126.627 23.7681C126.627 18.8895 124.066 16.2604 119.215 16.2604C114.364 16.2604 111.775 18.8895 111.775 23.7681Z" fill="white"/>
<path d="M131.811 23.7681C131.811 20.5428 133.064 19.3773 135.19 19.3773C137.288 19.3773 138.515 20.5428 138.515 23.7681C138.515 27.0477 137.288 28.186 135.19 28.186C133.064 28.186 131.811 27.0477 131.811 23.7681ZM127.75 23.7681C127.75 28.6739 130.339 31.33 135.19 31.33C140.014 31.33 142.602 28.6739 142.602 23.7681C142.602 18.8895 140.041 16.2604 135.19 16.2604C130.339 16.2604 127.75 18.8895 127.75 23.7681Z" fill="white"/>
<path d="M158.039 16.6399H153.842L148.038 23.0905V11.165H144.141V30.9506H148.038V26.4514L149.863 24.6354L153.679 30.9506H158.339L152.943 22.1961L158.039 16.6399Z" fill="white"/>
</svg>
