<svg width="147" height="134" viewBox="0 0 147 134" fill="none" xmlns="http://www.w3.org/2000/svg">
<g filter="url(#filter0_d_327_5224)">
<path d="M44.3129 12.3625C44.7059 10.6575 46.9442 10.2435 47.921 11.6951L57.6458 26.1455C57.929 26.5663 58.3616 26.8638 58.8558 26.9777L75.8287 30.8901C77.5337 31.2831 77.9477 33.5214 76.4962 34.4983L62.0458 44.2231C61.6249 44.5063 61.3274 44.9388 61.2135 45.4331L57.3011 62.406C56.9081 64.1109 54.6699 64.525 53.693 63.0734L43.9682 48.623C43.685 48.2022 43.2524 47.9047 42.7582 47.7907L25.7853 43.8784C24.0803 43.4854 23.6663 41.2471 25.1179 40.2702L39.5683 30.5454C39.9891 30.2622 40.2866 29.8297 40.4005 29.3354L44.3129 12.3625Z" fill="#5D5FEF"/>
<path d="M47.5062 11.9743L57.231 26.4247C57.585 26.9507 58.1257 27.3225 58.7435 27.465L75.7164 31.3773C76.9952 31.6721 77.3057 33.3508 76.217 34.0835L61.7666 43.8083C61.2406 44.1623 60.8687 44.7029 60.7263 45.3208L56.8139 62.2937C56.5191 63.5724 54.8405 63.8829 54.1078 62.7942L44.383 48.3438C44.029 47.8178 43.4883 47.4459 42.8705 47.3035L25.8976 43.3911C24.6189 43.0964 24.3083 41.4177 25.397 40.685L39.8474 30.9602C40.3734 30.6062 40.7453 30.0656 40.8877 29.4477L44.8001 12.4748C45.0949 11.1961 46.7736 10.8856 47.5062 11.9743Z" stroke="#140E0E"/>
</g>
<g filter="url(#filter1_d_327_5224)">
<path d="M91.54 82.309C91.933 80.6041 94.1713 80.1901 95.1481 81.6416L102.716 92.8864C102.999 93.3073 103.431 93.6048 103.926 93.7187L117.133 96.7632C118.838 97.1562 119.252 99.3944 117.801 100.371L106.556 107.939C106.135 108.222 105.838 108.655 105.724 109.149L102.679 122.357C102.286 124.062 100.048 124.476 99.0711 123.024L91.5036 111.779C91.2204 111.358 90.7879 111.061 90.2936 110.947L77.0859 107.902C75.3809 107.509 74.9669 105.271 76.4185 104.294L87.6633 96.7268C88.0841 96.4436 88.3816 96.011 88.4955 95.5168L91.54 82.309Z" fill="#F493C5"/>
<path d="M94.7333 81.9208L102.301 93.1656C102.655 93.6916 103.196 94.0635 103.813 94.2059L117.021 97.2504C118.3 97.5451 118.61 99.2238 117.522 99.9565L106.277 107.524C105.751 107.878 105.379 108.419 105.237 109.037L102.192 122.244C101.897 123.523 100.219 123.833 99.4859 122.745L91.9184 111.5C91.5644 110.974 91.0238 110.602 90.4059 110.46L77.1982 107.415C75.9195 107.12 75.6089 105.442 76.6976 104.709L87.9424 97.1416C88.4685 96.7876 88.8403 96.2469 88.9827 95.6291L92.0272 82.4213C92.322 81.1426 94.0007 80.8321 94.7333 81.9208Z" stroke="#140E0E"/>
</g>
<defs>
<filter id="filter0_d_327_5224" x="24.2334" y="10.8108" width="54.147" height="55.147" filterUnits="userSpaceOnUse" color-interpolation-filters="sRGB">
<feFlood flood-opacity="0" result="BackgroundImageFix"/>
<feColorMatrix in="SourceAlpha" type="matrix" values="0 0 0 0 0 0 0 0 0 0 0 0 0 0 0 0 0 0 127 0" result="hardAlpha"/>
<feOffset dx="1" dy="2"/>
<feComposite in2="hardAlpha" operator="out"/>
<feColorMatrix type="matrix" values="0 0 0 0 0 0 0 0 0 0 0 0 0 0 0 0 0 0 1 0"/>
<feBlend mode="normal" in2="BackgroundImageFix" result="effect1_dropShadow_327_5224"/>
<feBlend mode="normal" in="SourceGraphic" in2="effect1_dropShadow_327_5224" result="shape"/>
</filter>
<filter id="filter1_d_327_5224" x="75.5342" y="80.7573" width="44.1509" height="45.1511" filterUnits="userSpaceOnUse" color-interpolation-filters="sRGB">
<feFlood flood-opacity="0" result="BackgroundImageFix"/>
<feColorMatrix in="SourceAlpha" type="matrix" values="0 0 0 0 0 0 0 0 0 0 0 0 0 0 0 0 0 0 127 0" result="hardAlpha"/>
<feOffset dx="1" dy="2"/>
<feComposite in2="hardAlpha" operator="out"/>
<feColorMatrix type="matrix" values="0 0 0 0 0 0 0 0 0 0 0 0 0 0 0 0 0 0 1 0"/>
<feBlend mode="normal" in2="BackgroundImageFix" result="effect1_dropShadow_327_5224"/>
<feBlend mode="normal" in="SourceGraphic" in2="effect1_dropShadow_327_5224" result="shape"/>
</filter>
</defs>
</svg>
