<svg width="167" height="182" viewBox="0 0 167 182" fill="none" xmlns="http://www.w3.org/2000/svg">
<g filter="url(#filter0_d_606_11777)">
<path d="M43.3296 20.2711C42.415 0.86713 68.115 -6.77372 77.9499 9.97816C83.862 20.0483 97.4826 22.2437 106.259 14.5412C120.86 1.72801 142.857 17.057 135.892 35.1909C131.705 46.0918 138.481 58.1096 149.975 60.1692C169.096 63.5954 170.827 90.3512 152.306 96.212C141.173 99.735 136.002 112.526 141.558 122.796C150.801 139.882 130.962 157.917 114.832 147.091C105.137 140.583 91.9123 144.515 87.3466 155.263C79.7516 173.142 53.2815 168.876 51.6888 149.515C50.7315 137.877 39.4123 129.99 28.1627 133.121C9.44875 138.331 -3.71932 114.975 10.4241 101.659C18.9261 93.6546 18.0357 79.887 8.57331 73.0442C-7.16758 61.661 2.8822 36.804 22.1114 39.5593C33.6706 41.2157 43.8794 31.9355 43.3296 20.2711Z" fill="#EBCCFC"/>
<path d="M22.0404 40.0543C33.9104 41.7551 44.3936 32.2255 43.829 20.2476C42.9391 1.36519 67.9482 -6.07027 77.5188 10.2313C83.5898 20.5721 97.5765 22.8266 106.589 14.9171C120.797 2.44825 142.203 17.3652 135.425 35.0117C131.126 46.2056 138.084 58.5464 149.887 60.6614C168.494 63.9955 170.178 90.0321 152.156 95.7353C140.723 99.353 135.413 112.487 141.119 123.034C150.113 139.661 130.807 157.211 115.111 146.676C105.155 139.993 91.5748 144.031 86.8865 155.067C79.4955 172.466 53.737 168.314 52.1872 149.474C51.2041 137.524 39.5806 129.424 28.0287 132.64C9.81771 137.709 -2.99639 114.981 10.7668 102.023C19.4974 93.8035 18.583 79.6658 8.8663 72.639C-6.45145 61.5619 3.32818 37.373 22.0404 40.0543Z" stroke="#181413"/>
</g>
<defs>
<filter id="filter0_d_606_11777" x="0.80835" y="0.754883" width="165.489" height="180.85" filterUnits="userSpaceOnUse" color-interpolation-filters="sRGB">
<feFlood flood-opacity="0" result="BackgroundImageFix"/>
<feColorMatrix in="SourceAlpha" type="matrix" values="0 0 0 0 0 0 0 0 0 0 0 0 0 0 0 0 0 0 127 0" result="hardAlpha"/>
<feOffset dx="1" dy="15"/>
<feComposite in2="hardAlpha" operator="out"/>
<feColorMatrix type="matrix" values="0 0 0 0 0 0 0 0 0 0 0 0 0 0 0 0 0 0 1 0"/>
<feBlend mode="normal" in2="BackgroundImageFix" result="effect1_dropShadow_606_11777"/>
<feBlend mode="normal" in="SourceGraphic" in2="effect1_dropShadow_606_11777" result="shape"/>
</filter>
</defs>
</svg>
