<svg width="371" height="348" viewBox="0 0 371 348" fill="none" xmlns="http://www.w3.org/2000/svg">
<g filter="url(#filter0_d_501_11021)">
<mask id="path-1-inside-1_501_11021" fill="white">
<path fill-rule="evenodd" clip-rule="evenodd" d="M180.03 189.667L166.236 172.362L154.699 181.559L153.55 180.117C152.28 178.524 149.959 178.262 148.367 179.532L48.8655 258.849C47.2727 260.119 47.0108 262.44 48.2805 264.032L65.5235 285.663C66.7932 287.256 69.1138 287.518 70.7066 286.248L170.208 206.93C171.8 205.661 172.062 203.34 170.793 201.747L168.494 198.863L180.03 189.667Z"/>
</mask>
<path fill-rule="evenodd" clip-rule="evenodd" d="M180.03 189.667L166.236 172.362L154.699 181.559L153.55 180.117C152.28 178.524 149.959 178.262 148.367 179.532L48.8655 258.849C47.2727 260.119 47.0108 262.44 48.2805 264.032L65.5235 285.663C66.7932 287.256 69.1138 287.518 70.7066 286.248L170.208 206.93C171.8 205.661 172.062 203.34 170.793 201.747L168.494 198.863L180.03 189.667Z" fill="#5FB6A7"/>
<path d="M166.236 172.362L169.12 170.063L166.821 167.179L163.937 169.478L166.236 172.362ZM180.03 189.667L182.329 192.551L185.213 190.252L182.914 187.368L180.03 189.667ZM154.699 181.559L151.815 183.858L154.114 186.742L156.998 184.443L154.699 181.559ZM148.367 179.532L146.067 176.647L148.367 179.532ZM48.8655 258.849L51.1646 261.733L48.8655 258.849ZM70.7066 286.248L68.4075 283.364L70.7066 286.248ZM170.208 206.93L172.507 209.814L170.208 206.93ZM168.494 198.863L166.194 195.979L163.31 198.278L165.609 201.162L168.494 198.863ZM163.352 174.661L177.146 191.966L182.914 187.368L169.12 170.063L163.352 174.661ZM156.998 184.443L168.535 175.246L163.937 169.478L152.4 178.675L156.998 184.443ZM150.666 182.416L151.815 183.858L157.583 179.26L156.434 177.818L150.666 182.416ZM150.666 182.416L150.666 182.416L156.434 177.818C153.894 174.632 149.253 174.108 146.067 176.647L150.666 182.416ZM51.1646 261.733L150.666 182.416L146.067 176.647L46.5665 255.965L51.1646 261.733ZM51.1646 261.733L51.1646 261.733L46.5665 255.965C43.3808 258.505 42.8569 263.146 45.3964 266.331L51.1646 261.733ZM68.4075 283.364L51.1646 261.733L45.3964 266.331L62.6394 287.962L68.4075 283.364ZM68.4075 283.364L68.4075 283.364L62.6394 287.962C65.1788 291.148 69.82 291.672 73.0057 289.132L68.4075 283.364ZM167.909 204.046L68.4075 283.364L73.0057 289.132L172.507 209.814L167.909 204.046ZM167.909 204.046L167.909 204.046L172.507 209.814C175.692 207.275 176.216 202.634 173.677 199.448L167.909 204.046ZM165.609 201.162L167.909 204.046L173.677 199.448L171.378 196.564L165.609 201.162ZM177.731 186.783L166.194 195.979L170.793 201.747L182.329 192.551L177.731 186.783Z" fill="#140E0E" mask="url(#path-1-inside-1_501_11021)"/>
<circle cx="240.616" cy="129.579" r="90.3636" transform="rotate(51.4397 240.616 129.579)" fill="#EF5DA8" stroke="#140E0E" stroke-width="3.68831"/>
<circle cx="240.616" cy="129.578" r="64.5455" transform="rotate(51.4397 240.616 129.578)" fill="white" stroke="#140E0E" stroke-width="3.68831"/>
</g>
<defs>
<filter id="filter0_d_501_11021" x="0" y="0" width="370.195" height="361.671" filterUnits="userSpaceOnUse" color-interpolation-filters="sRGB">
<feFlood flood-opacity="0" result="BackgroundImageFix"/>
<feColorMatrix in="SourceAlpha" type="matrix" values="0 0 0 0 0 0 0 0 0 0 0 0 0 0 0 0 0 0 127 0" result="hardAlpha"/>
<feOffset dy="14"/>
<feComposite in2="hardAlpha" operator="out"/>
<feColorMatrix type="matrix" values="0 0 0 0 0 0 0 0 0 0 0 0 0 0 0 0 0 0 1 0"/>
<feBlend mode="normal" in2="BackgroundImageFix" result="effect1_dropShadow_501_11021"/>
<feBlend mode="normal" in="SourceGraphic" in2="effect1_dropShadow_501_11021" result="shape"/>
</filter>
</defs>
</svg>
