<svg width="202" height="203" viewBox="0 0 202 203" fill="none" xmlns="http://www.w3.org/2000/svg">
<g filter="url(#filter0_d_501_11031)">
<path d="M75.7076 35.7631C76.5295 30.8348 82.6626 29.0114 86.0435 32.6901L117.363 66.7686C118.268 67.7528 119.475 68.4068 120.794 68.6267L166.448 76.2412C171.376 77.0632 173.199 83.1962 169.521 86.5771L135.442 117.897C134.458 118.801 133.804 120.009 133.584 121.327L125.97 166.981C125.148 171.91 119.015 173.733 115.634 170.054L84.314 135.976C83.4094 134.992 82.202 134.338 80.8834 134.118L35.2295 126.503C30.3012 125.681 28.4778 119.548 32.1565 116.167L66.2349 84.8477C67.2192 83.9431 67.8732 82.7357 68.0931 81.4171L75.7076 35.7631Z" fill="#FAC9E2"/>
<path d="M85.6753 33.0285L116.995 67.1069C117.975 68.1732 119.283 68.8817 120.712 69.1199L166.366 76.7344C170.883 77.4879 172.555 83.1098 169.182 86.209L135.104 117.529C134.038 118.509 133.329 119.817 133.091 121.245L125.477 166.899C124.723 171.417 119.101 173.088 116.002 169.716L84.6822 135.638C83.7022 134.571 82.3942 133.863 80.9657 133.625L35.3117 126.01C30.7941 125.257 29.1227 119.635 32.4948 116.536L66.5732 85.2158C67.6395 84.2358 68.348 82.9278 68.5863 81.4993L76.2007 35.8454C76.9542 31.3278 82.5762 29.6563 85.6753 33.0285Z" stroke="#140E0E"/>
</g>
<defs>
<filter id="filter0_d_501_11031" x="30.2107" y="30.7441" width="147.256" height="151.256" filterUnits="userSpaceOnUse" color-interpolation-filters="sRGB">
<feFlood flood-opacity="0" result="BackgroundImageFix"/>
<feColorMatrix in="SourceAlpha" type="matrix" values="0 0 0 0 0 0 0 0 0 0 0 0 0 0 0 0 0 0 127 0" result="hardAlpha"/>
<feOffset dx="6" dy="10"/>
<feComposite in2="hardAlpha" operator="out"/>
<feColorMatrix type="matrix" values="0 0 0 0 0 0 0 0 0 0 0 0 0 0 0 0 0 0 1 0"/>
<feBlend mode="normal" in2="BackgroundImageFix" result="effect1_dropShadow_501_11031"/>
<feBlend mode="normal" in="SourceGraphic" in2="effect1_dropShadow_501_11031" result="shape"/>
</filter>
</defs>
</svg>
