<svg width="455" height="80" viewBox="0 0 455 80" fill="none" xmlns="http://www.w3.org/2000/svg">
<path d="M40.6937 0.0539551C18.6679 0.0539551 0.747681 17.9741 0.747681 40C0.747681 62.0258 18.6679 79.946 40.6937 79.946C62.7195 79.946 80.6397 62.0258 80.6397 40C80.6397 17.9741 62.7252 0.0539551 40.6937 0.0539551ZM40.6937 77.7708C19.8694 77.7708 2.92863 60.83 2.92863 40.0057C2.92863 19.1814 19.8694 2.2349 40.6937 2.2349C61.518 2.2349 78.4588 19.1757 78.4588 40C78.4588 60.8243 61.5237 77.7708 40.6937 77.7708Z" fill="white"/>
<path d="M25.9623 40C25.9623 50.0164 29.7889 58.8654 35.5915 64.0929C36.252 64.0302 36.9069 63.9163 37.556 63.7398C31.5542 58.9565 27.5168 50.1075 27.5168 40C27.5168 29.3856 31.9755 20.1551 38.4842 15.5711C40.1014 14.4322 41.8553 13.5781 43.6946 13.0656C43.8996 13.0086 44.1102 12.9517 44.3152 12.9061C44.4462 12.872 44.5772 12.8435 44.7082 12.815H44.7139C44.8562 12.7865 45.0043 12.7524 45.1523 12.7296C45.1523 12.7296 45.1523 12.7296 45.158 12.7296C45.2491 12.7125 45.3402 12.6954 45.4313 12.684C45.4598 12.6783 45.494 12.6727 45.5225 12.667C45.6136 12.6499 45.7047 12.6385 45.7958 12.6271C45.904 12.61 46.0122 12.5986 46.1261 12.5872C46.2001 12.5758 46.2684 12.5702 46.3481 12.5645C46.8265 12.5132 47.3162 12.4904 47.8059 12.4904C47.8628 12.4904 47.9198 12.4904 47.9824 12.4904C54.9865 12.5702 61.1535 17.4901 64.7467 24.8985H53.1871C51.5471 21.3224 49.3434 18.2531 46.741 15.9071C46.0805 15.9697 45.42 16.0836 44.7708 16.2544C47.4642 18.3955 49.7648 21.3623 51.4845 24.8928H39.7028C39.6573 24.8928 39.6174 24.8985 39.5775 24.9042V26.436C39.6174 26.4417 39.6629 26.4473 39.7028 26.4473H67.1098C66.9048 25.9178 66.6771 25.3996 66.4436 24.8928C62.6056 16.5277 55.6812 10.9302 47.7945 10.9302C35.7566 10.9416 25.9623 23.976 25.9623 40Z" fill="white"/>
<path d="M39.7027 48.4162C39.6572 48.4162 39.6173 48.4218 39.5774 48.4275V49.9593C39.6173 49.9707 39.6628 49.9707 39.7027 49.9707H53.4261C51.7577 55.7733 48.6713 60.6249 44.7536 63.7397C41.7527 66.137 38.2506 67.5094 34.5265 67.5094C34.481 67.5094 34.4411 67.5094 34.3956 67.5094C23.2744 67.4183 14.2432 55.1127 14.2432 39.9999C14.2432 24.8927 23.2687 12.5872 34.3956 12.496C35.039 11.9722 35.7053 11.4825 36.3829 11.044C35.7736 10.9757 35.1529 10.9358 34.5265 10.9358C22.4886 10.9358 12.6886 23.9759 12.6886 39.9999C12.6886 56.0238 22.4886 69.064 34.5265 69.064C35.1529 69.064 35.7736 69.0298 36.3829 68.9558C40.1924 68.5287 43.7229 66.7919 46.7296 64.0871C50.5106 60.6875 53.4432 55.7562 55.0376 49.965H66.6997C63.7614 60.175 56.4556 67.4354 47.914 67.5037C47.2648 68.0276 46.5986 68.5116 45.9153 68.9501C46.536 69.0241 47.1623 69.0583 47.7944 69.0583C57.2072 69.0583 65.242 61.0918 68.3055 49.965C68.4479 49.4525 68.5789 48.9343 68.6985 48.4105H39.7027V48.4162Z" fill="white"/>
<path d="M48.4724 37.1868C48.4724 35.1539 46.6844 33.7759 44.2415 33.7759C41.7929 33.7759 40.1187 35.1938 39.8397 37.3633H41.5936C41.7815 36.0252 42.6072 35.3646 44.2073 35.3646C45.796 35.3646 46.7128 35.9853 46.7128 37.2494V37.3462H48.4667V37.1868H48.4724Z" fill="white"/>
<path d="M46.7241 38.7758C46.7241 40.0399 45.8073 40.6606 44.2185 40.6606C42.6241 40.6606 41.7984 39.9943 41.6105 38.6789H39.851C40.13 40.8257 41.8041 42.255 44.2527 42.255C46.6956 42.255 48.4836 40.877 48.4836 38.8441V38.6619H46.7298V38.7758H46.7241Z" fill="white"/>
<path d="M57.4862 42.0843V38.6734H55.7494C55.7494 40.2792 54.5024 40.9683 52.6517 40.9683C51.6381 40.9683 51.1939 40.6551 51.1939 40.0002C51.1939 39.3624 51.6324 39.1461 52.5549 39.0322L55.7494 38.6677H50.1177C49.6735 39.0094 49.423 39.4877 49.423 40.1141C49.423 41.458 50.4878 42.2438 52.179 42.2438C54.0297 42.2438 55.328 41.4238 55.7494 40.0458H55.8633V42.0787H57.4862V42.0843Z" fill="white"/>
<path d="M57.4865 37.3633V37.1356C57.4865 35.1824 56.3191 33.7759 53.7339 33.7759C51.1429 33.7759 49.6055 35.171 49.6055 37.0217V37.09H51.3593V37.0217C51.3593 35.8259 52.0939 35.3361 53.6086 35.3361C55.1632 35.3361 55.7554 35.8088 55.7554 37.1526V37.3633H57.4865Z" fill="white"/>
<path d="M67.7648 42.084V38.6731H65.9483C65.7262 39.9885 64.724 40.6263 63.1922 40.6263C61.6491 40.6263 60.6924 40.1195 60.4817 38.6731H58.688C58.9158 40.8199 60.3109 42.2492 62.6513 42.2492C64.4849 42.2492 65.6807 41.3608 66.028 39.7436H66.1419V42.0897H67.7648V42.084Z" fill="white"/>
<path d="M65.9939 36.1564H65.8971C65.5725 34.7784 64.4735 33.7819 62.5374 33.7819C60.2824 33.7819 58.9101 35.1998 58.688 37.3693H60.4817C60.6924 35.9059 61.6605 35.3877 63.1581 35.3877C64.7525 35.3877 65.7262 36.0425 65.9426 37.3693H67.7591V31.2422H65.9882V36.1564H65.9939Z" fill="white"/>
<path d="M105.88 55.2814V54.9935H116.215V55.7611C116.215 61.9843 119.95 63.9924 129.902 63.9924C139.189 63.9924 141.964 62.0803 141.964 57.8652C141.964 53.9381 139.668 52.6975 132.87 51.738L119.854 50.0177C110.855 48.8663 105.4 45.0419 105.4 37.0985C105.4 28.7712 112.96 22.8359 127.606 22.8359C142.156 22.8359 150.963 28.6753 150.963 39.9702V40.2581H140.724V39.6823C140.724 34.0349 137.852 31.0672 127.325 31.0672C118.614 31.0672 115.55 32.9794 115.55 37.4823C115.55 41.2176 117.462 42.5541 124.645 43.5136L135.652 45.0419C146.947 46.4812 152.115 50.3056 152.115 58.1531C152.115 67.0561 143.308 72.3197 129.909 72.3197C114.591 72.3197 105.88 66.2884 105.88 55.2814Z" fill="white"/>
<path d="M179.872 71.3603C169.633 71.3603 163.314 66.8643 163.314 55.2815V32.4039H155.274V23.7888H163.314V13.3574H173.553V23.7888H190.783V32.4039H173.553V54.7058C173.553 60.5452 176.233 62.0736 182.168 62.0736H190.783V71.3603H179.872Z" fill="white"/>
<path d="M197.198 52.4099V23.7888H207.438V49.6341C207.438 58.5371 211.55 63.0331 221.604 63.0331C232.132 63.0331 237.018 57.6735 237.018 47.3382V23.7888H247.258V71.3604H237.779V56.6181H237.203C235.675 64.6575 229.356 72.3199 217.102 72.3199C203.703 72.3199 197.198 63.4169 197.198 52.4099Z" fill="white"/>
<path d="M254.241 47.6257C254.241 32.7875 262.473 22.8359 276.927 22.8359C288.222 22.8359 294.637 28.6752 296.549 36.7146H297.125V7.22998H307.46V71.3601H297.982V57.6733H297.31C295.302 67.1519 288.311 72.3196 277.592 72.3196C262.569 72.3196 254.241 62.2652 254.241 47.6257ZM280.758 62.841C290.902 62.841 297.125 58.0571 297.125 48.0986V47.331C297.125 37.1875 291.19 32.2049 280.566 32.2049C270.615 32.2049 264.68 36.1321 264.68 47.6189C264.68 59.0166 270.519 62.841 280.758 62.841Z" fill="white"/>
<path d="M317.035 18.237V7.22998H327.371V18.237H317.035V18.237ZM317.035 71.3601V23.7885H327.371V71.3601H317.035Z" fill="white"/>
<path d="M334.841 47.6258C334.841 32.7875 345.464 22.8359 361.262 22.8359C377.149 22.8359 387.779 32.7875 387.779 47.6258C387.779 62.2722 377.156 72.3197 361.262 72.3197C345.464 72.3197 334.841 62.2653 334.841 47.6258ZM377.629 47.6258C377.629 37.4823 372.845 31.9308 361.262 31.9308C349.775 31.9308 344.992 37.4823 344.992 47.6258C344.992 57.6733 349.775 63.1357 361.262 63.1357C372.838 63.1289 377.629 57.6733 377.629 47.6258Z" fill="white"/>
<path d="M404.365 47.6258C404.365 32.7875 414.604 22.8359 430.306 22.8359C444.569 22.8359 455 30.8753 455 42.746V43.7055H444.76V43.1298C444.76 35.762 439.401 32.1227 430.114 32.1227C419.395 32.1227 414.604 37.1945 414.604 47.6326C414.604 57.8721 419.388 63.0466 430.114 63.0466C439.401 63.0466 444.76 59.4073 444.76 52.0396V51.3679H455V52.4234C455 64.294 444.569 72.3334 430.306 72.3334C414.604 72.3197 404.365 62.2653 404.365 47.6258Z" fill="white"/>
</svg>
